<?xml version="1.0" standalone="no"?>
<!DOCTYPE svg PUBLIC "-//W3C//DTD SVG 20010904//EN"
 "http://www.w3.org/TR/2001/REC-SVG-20010904/DTD/svg10.dtd">
<svg version="1.0" xmlns="http://www.w3.org/2000/svg"
 width="245.000000pt" height="206.000000pt" viewBox="0 0 245.000000 206.000000"
 preserveAspectRatio="xMidYMid meet">
<metadata>
Created by potrace 1.16, written by Peter Selinger 2001-2019
</metadata>
<g transform="translate(0.000000,206.000000) scale(0.100000,-0.100000)"
fill="#000000" stroke="none">
<path d="M1025 2030 c-143 -37 -229 -80 -339 -169 -134 -108 -242 -276 -287
-446 -33 -123 -31 -319 5 -438 86 -286 285 -493 561 -583 l70 -23 -140 6
c-203 8 -305 -19 -305 -82 0 -22 -5 -24 -67 -31 -97 -10 -253 2 -370 29 l-102
23 -18 -35 c-35 -73 -26 -218 15 -240 57 -30 520 -50 594 -25 44 14 32 29 -18
25 -112 -8 33 51 171 70 101 14 219 5 346 -27 l98 -25 65 20 c94 29 227 44
315 37 89 -8 222 -42 248 -63 16 -13 14 -14 -27 -9 -64 7 -83 -8 -34 -25 83
-30 560 -10 602 24 21 17 42 76 42 117 0 47 -29 140 -46 147 -7 2 -56 -5 -111
-17 -115 -25 -262 -36 -355 -26 -62 7 -67 9 -70 33 -6 55 -90 83 -247 83 -97
0 -261 -22 -336 -46 -46 -14 -55 -14 -116 3 l-67 18 127 1 c153 1 244 23 376
89 317 158 507 502 466 847 -10 87 -38 205 -46 196 -2 -2 4 -35 14 -73 63
-238 16 -490 -129 -700 -47 -67 -147 -162 -228 -215 -477 -313 -1124 -62
-1273 496 -25 94 -30 284 -10 379 75 349 383 628 734 665 70 7 71 7 17 8 -30
1 -86 -7 -125 -18z"/>
<path d="M1105 1855 c-204 -37 -382 -172 -473 -358 -94 -190 -94 -391 0 -587
74 -154 240 -295 408 -344 89 -27 213 -31 310 -12 460 92 686 619 432 1007
-102 156 -285 277 -444 294 -49 5 -48 4 17 -10 39 -9 111 -36 160 -60 266
-131 410 -424 350 -710 -16 -74 -53 -175 -64 -175 -4 0 -15 15 -23 34 -12 24
-38 45 -95 78 -43 25 -89 49 -102 53 -14 4 -53 20 -88 36 -53 24 -67 35 -80
66 -16 37 -16 37 -23 13 -5 -21 -8 -18 -14 22 -6 38 -3 57 13 94 12 26 21 57
21 69 0 30 10 55 21 55 4 0 6 -7 3 -15 -4 -8 -1 -15 6 -15 7 0 10 12 8 32 -4
36 18 51 25 16 3 -17 5 -15 6 10 1 23 -3 32 -14 32 -13 0 -15 9 -9 49 10 80
-11 146 -65 201 -99 103 -265 94 -345 -18 -26 -38 -30 -52 -31 -110 0 -37 4
-82 8 -99 7 -27 6 -32 -6 -27 -8 3 -18 0 -22 -6 -4 -7 0 -10 11 -8 13 2 24 -8
36 -32 9 -19 17 -29 18 -22 0 7 5 10 10 7 14 -8 13 -3 -6 34 -15 31 -15 35 10
92 14 33 26 66 26 73 0 20 34 46 60 46 13 0 36 12 52 27 l28 27 6 -31 c6 -29
30 -40 45 -20 9 13 111 -31 103 -44 -3 -5 2 -19 9 -31 29 -45 29 -104 3 -157
-15 -28 -25 -64 -24 -88 0 -22 -4 -49 -10 -60 -24 -44 -205 -52 -249 -11 -12
12 -31 38 -42 60 -12 25 -22 35 -26 27 -4 -6 -3 -14 2 -18 5 -3 20 -28 34 -56
21 -43 34 -55 94 -86 67 -35 80 -53 52 -71 -7 -4 -18 -6 -24 -3 -7 2 -13 0
-13 -5 0 -27 109 -16 158 16 31 20 40 10 16 -17 -20 -23 -85 -59 -105 -59 -7
0 -21 -7 -31 -17 -15 -13 -18 -14 -18 -1 0 9 -21 21 -54 31 -78 25 -109 52
-102 90 6 29 6 29 -12 9 -17 -20 -145 -89 -232 -126 -123 -52 -148 -65 -168
-90 l-21 -28 -15 37 c-22 52 -46 176 -46 238 0 243 146 477 363 581 101 48
152 62 272 75 70 7 73 8 25 9 -30 0 -86 -6 -125 -13z"/>
</g>
</svg>
